<svg width="1014" height="618" viewBox="0 0 1014 618" fill="none" xmlns="http://www.w3.org/2000/svg">
<path d="M739.332 35.5152C852.573 -35.9632 973.349 13.4621 1041.77 86.2935C1109.57 158.475 1152.19 279.987 1090.37 390.016C1043.63 473.214 959.933 538.261 879.347 582.837C909.35 611.928 946.07 638.984 990.48 662.509C1010.03 672.867 1026.39 672.689 1050.9 661.298C1080.7 647.456 1112.1 621.526 1154.34 585.626C1206.9 540.95 1272.89 513.374 1345.13 516.981C1397.19 519.581 1447.27 538.107 1493.13 570.768C1488.79 560.509 1484.76 549.885 1481.08 538.883C1421.63 361.181 1505.06 215.188 1624.44 150.942C1682.83 119.515 1752.22 106.231 1818.81 120.524C1887.39 135.243 1948.6 178.525 1985.74 250.662C2043.58 363.026 2001.51 489.26 1957.75 576.475C1939.09 613.671 1917.6 648.731 1896.75 679.589C1903.33 680.648 1909.96 681.607 1916.64 682.466C1981.32 690.785 2045.12 688.84 2095.53 682.552C2120.69 679.414 2141.45 675.325 2156.46 671.35C2174.77 666.501 2176.34 663.938 2170.69 667.957L2262.31 796.683C2242.79 810.577 2216.73 818.836 2196.9 824.086C2173.78 830.21 2145.88 835.496 2115.08 839.337C2053.58 847.009 1976.29 849.439 1896.49 839.175C1860.17 834.504 1822.06 826.951 1784.08 815.53C1734.82 850.015 1673.94 853.638 1620.22 840.865C1553.42 824.978 1487.13 782.903 1431.78 725.811C1395.09 687.97 1362.31 676.035 1337.25 674.784C1311.86 673.516 1284.1 682.69 1256.66 706.013C1218.9 738.113 1170.55 779.933 1117.47 804.591C1059.11 831.701 989.467 840.773 916.52 802.13C835.675 759.305 772.33 706.062 724.534 647.489C684.872 658.709 643.512 665.924 607.547 663.665C565.303 661.01 522.931 641.303 489.576 623.721C454.654 605.313 414.261 580.489 377.939 559.342C298.326 512.992 227.709 478.458 167.146 476.269C154.008 475.794 133.795 480.482 105.942 496.301C78.6571 511.798 49.2146 535.05 19.5029 563.541C-40.0076 620.606 -92.6915 691.016 -122.306 737.663L-255.694 652.978C-220.975 598.291 -160.559 517.301 -89.8525 449.5C-54.4559 415.557 -14.511 383.009 27.9141 358.914C69.7715 335.141 119.592 316.447 172.854 318.372C278.29 322.183 381.174 378.398 457.436 422.797C499.051 447.026 532.19 467.577 563.252 483.95C595.88 501.149 611.947 505.629 617.453 505.975C622.63 506.3 630.426 505.935 640.678 504.458C626.668 468.599 617.098 432.297 611.623 396.456C590.063 255.305 631.925 103.311 739.332 35.5152ZM1785.66 275.006C1760.59 269.627 1729.3 273.937 1699.31 290.073C1641.94 320.952 1597.87 389.959 1630.92 488.756C1651.47 550.183 1690.53 594.709 1741.29 625.911C1766.11 592.176 1794.13 550.271 1816.53 505.617C1856.95 425.067 1865.63 362.549 1845.26 322.978C1830.15 293.615 1808.73 279.959 1785.66 275.006ZM926.608 194.472C890.401 155.929 851.427 151.603 823.668 169.125C790.075 190.329 751.393 265.112 767.812 372.599C771.74 398.318 778.849 424.961 789.711 451.652C862.722 413.531 924.16 363.289 952.626 312.624C970.307 281.153 963.426 233.665 926.608 194.472Z" fill="#B892C2"/>
</svg>
