<svg width="403" height="453" viewBox="0 0 403 453" fill="none" xmlns="http://www.w3.org/2000/svg">
<path d="M55.7441 143.052V397L159.589 215.823M346.855 397L243.01 215.823M159.589 215.823L201.3 143.052L243.01 215.823M159.589 215.823C159.589 215.823 173.427 193.525 201.3 192.603C229.172 191.68 243.01 215.823 243.01 215.823" stroke="white" stroke-width="111" stroke-linecap="round" stroke-linejoin="round"/>
<path d="M55.7441 143.052V397L159.589 215.823M346.855 397L243.01 215.823M159.589 215.823L201.3 143.052L243.01 215.823M159.589 215.823C159.589 215.823 173.427 193.525 201.3 192.603C229.172 191.68 243.01 215.823 243.01 215.823" stroke="url(#paint0_linear_108_7)" stroke-width="71" stroke-linecap="round" stroke-linejoin="round"/>
<path d="M55.8164 143.052V248.347V397L123.949 279.317L159.661 215.823M346.928 397L243.082 215.823M159.661 215.823L201.372 143.052L243.082 215.823M159.661 215.823C159.661 215.823 173.5 193.525 201.372 192.603C229.244 191.68 243.082 215.823 243.082 215.823" stroke="black" stroke-width="56" stroke-linecap="round" stroke-linejoin="round"/>
<path d="M78.6359 107.166C90.3952 101.87 99.9544 92.6607 105.685 81.1068C111.415 69.5529 112.962 56.3696 110.062 43.8031C107.162 31.2365 99.9939 20.0644 89.7799 12.1901C79.566 4.3159 66.9377 0.226817 54.0469 0.61961C41.156 1.0124 28.8002 5.86277 19.0846 14.3443C9.36905 22.8258 2.89489 34.4136 0.76526 47.1334C-1.36437 59.8532 0.982287 72.9179 7.4054 84.1014C13.8285 95.285 23.9307 103.895 35.9906 108.466L55.7447 56.3384L78.6359 107.166Z" fill="white"/>
<path d="M92.9083 56.337C92.9083 76.8616 76.2698 93.5001 55.7452 93.5001C35.2205 93.5001 18.582 76.8616 18.582 56.337C18.582 35.8123 35.2205 19.1738 55.7452 19.1738C76.2698 19.1738 92.9083 35.8123 92.9083 56.337Z" fill="url(#paint1_linear_108_7)"/>
<path d="M86.7149 56.3374C86.7149 73.4413 72.8495 87.3067 55.7456 87.3067C38.6418 87.3067 24.7764 73.4413 24.7764 56.3374C24.7764 39.2336 38.6418 25.3682 55.7456 25.3682C72.8495 25.3682 86.7149 39.2336 86.7149 56.3374Z" fill="black"/>
<defs>
<linearGradient id="paint0_linear_108_7" x1="41.0131" y1="267.594" x2="358.652" y2="267.594" gradientUnits="userSpaceOnUse">
<stop stop-color="#DE0B20"/>
<stop offset="0.56" stop-color="#652483"/>
<stop offset="1" stop-color="#0095B6"/>
</linearGradient>
<linearGradient id="paint1_linear_108_7" x1="14.8209" y1="55.6252" x2="95.9202" y2="55.6252" gradientUnits="userSpaceOnUse">
<stop stop-color="#DE0B20"/>
<stop offset="0.56" stop-color="#652483"/>
<stop offset="1" stop-color="#0095B6"/>
</linearGradient>
</defs>
</svg>
